<svg xmlns="http://www.w3.org/2000/svg" height="512pt" version="1.1" viewBox="0 0 512 512" width="512pt">
<g id="surface1">
<path d="M 512 256 C 512 397.386719 397.386719 512 256 512 C 114.613281 512 0 397.386719 0 256 C 0 114.613281 114.613281 0 256 0 C 397.386719 0 512 114.613281 512 256 Z M 512 256 " style=" stroke:none;fill-rule:nonzero;fill:rgb(32.54902%,95.686275%,85.098039%);fill-opacity:1;" />
<path d="M 0 256 C 0 282.050781 3.890625 307.191406 11.128906 330.871094 C 43.140625 435.71875 140.671875 512 256 512 C 360.558594 512 450.488281 449.300781 490.230469 359.449219 C 504.230469 327.820312 512 292.820312 512 256 C 512 209.78125 499.75 166.429688 478.320312 129 C 434.199219 206.070312 351.160156 258 256 258 C 160.839844 258 77.789062 206.070312 33.679688 129 C 12.25 166.429688 0 209.78125 0 256 Z M 0 256 " style=" stroke:none;fill-rule:nonzero;fill:rgb(6.27451%,88.627451%,76.862745%);fill-opacity:1;" />
<path d="M 481.257812 377.703125 C 474.101562 390.921875 465.828125 403.441406 456.539062 415.128906 C 409.640625 474.148438 337.238281 512 256 512 C 174.761719 512 102.359375 474.148438 55.460938 415.128906 C 46.171875 403.441406 37.898438 390.921875 30.742188 377.703125 Z M 481.257812 377.703125 " style=" stroke:none;fill-rule:nonzero;fill:rgb(19.607843%,23.137255%,35.294118%);fill-opacity:1;" />
<path d="M 109.589844 444.851562 L 109.589844 466.03125 C 142.859375 489.261719 181.898438 504.789062 224.121094 510.03125 C 225.589844 510.21875 227.078125 510.390625 228.558594 510.539062 L 228.578125 510.539062 C 235.800781 511.320312 243.101562 511.789062 250.480469 511.941406 C 252.308594 511.980469 254.140625 512 255.980469 512 C 257.820312 512 259.648438 511.980469 261.480469 511.941406 C 268.878906 511.789062 276.199219 511.320312 283.429688 510.539062 C 284.910156 510.390625 286.410156 510.21875 287.878906 510.019531 C 330.101562 504.78125 369.140625 489.25 402.410156 466.011719 L 402.410156 444.851562 C 402.410156 388.949219 367.621094 338.960938 315.21875 319.511719 L 309 317.210938 L 305.71875 315.988281 L 291.578125 310.75 L 286.320312 308.800781 L 225.679688 308.800781 L 220.429688 310.75 L 206.28125 315.988281 L 203 317.210938 L 196.78125 319.511719 C 144.390625 338.960938 109.589844 388.949219 109.589844 444.851562 Z M 109.589844 444.851562 " style=" stroke:none;fill-rule:nonzero;fill:rgb(100%,91.372549%,33.333333%);fill-opacity:1;" />
<path d="M 255.980469 308.800781 L 255.980469 512 C 257.820312 512 259.648438 511.980469 261.480469 511.941406 C 268.878906 511.789062 276.199219 511.320312 283.429688 510.539062 C 284.910156 510.390625 286.410156 510.21875 287.878906 510.019531 C 330.101562 504.78125 369.140625 489.25 402.410156 466.011719 L 402.410156 444.851562 C 402.410156 388.949219 367.621094 338.960938 315.21875 319.511719 L 309 317.210938 L 305.71875 315.988281 L 291.578125 310.75 L 286.320312 308.800781 Z M 255.980469 308.800781 " style=" stroke:none;fill-rule:nonzero;fill:rgb(100%,81.960784%,7.058824%);fill-opacity:1;" />
<path d="M 353.046875 457.980469 C 351.085938 456.015625 351.085938 452.828125 353.046875 450.867188 C 355.011719 448.902344 358.195312 448.902344 360.160156 450.867188 C 362.113281 452.820312 365.28125 452.820312 367.234375 450.867188 C 369.199219 448.902344 372.382812 448.902344 374.347656 450.867188 C 376.3125 452.828125 376.3125 456.015625 374.347656 457.980469 C 372.394531 459.933594 372.394531 463.097656 374.347656 465.050781 C 376.3125 467.015625 376.3125 470.199219 374.347656 472.164062 C 372.382812 474.128906 369.199219 474.128906 367.234375 472.164062 C 365.28125 470.210938 362.113281 470.210938 360.160156 472.164062 C 358.195312 474.128906 355.011719 474.128906 353.046875 472.164062 C 351.085938 470.199219 351.085938 467.015625 353.046875 465.050781 C 355 463.097656 355 459.933594 353.046875 457.980469 Z M 353.046875 457.980469 " style=" stroke:none;fill-rule:nonzero;fill:rgb(86.666667%,7.058824%,39.607843%);fill-opacity:1;" />
<path d="M 358.667969 451.484375 C 358.667969 448.707031 360.921875 446.457031 363.695312 446.457031 C 366.476562 446.457031 368.726562 448.707031 368.726562 451.484375 C 368.726562 454.246094 370.964844 456.484375 373.726562 456.484375 C 376.503906 456.484375 378.757812 458.738281 378.757812 461.515625 C 378.757812 464.292969 376.503906 466.542969 373.726562 466.542969 C 370.964844 466.542969 368.726562 468.78125 368.726562 471.546875 C 368.726562 474.324219 366.472656 476.574219 363.695312 476.574219 C 360.917969 476.574219 358.667969 474.320312 358.667969 471.546875 C 358.667969 468.78125 356.429688 466.542969 353.667969 466.542969 C 350.890625 466.542969 348.636719 464.292969 348.636719 461.515625 C 348.636719 458.738281 350.890625 456.484375 353.667969 456.484375 C 356.429688 456.484375 358.667969 454.246094 358.667969 451.484375 Z M 358.667969 451.484375 " style=" stroke:none;fill-rule:nonzero;fill:rgb(100%,20.392157%,27.058824%);fill-opacity:1;" />
<path d="M 369.714844 461.515625 C 369.714844 464.835938 367.019531 467.53125 363.695312 467.53125 C 360.375 467.53125 357.679688 464.835938 357.679688 461.515625 C 357.679688 458.191406 360.375 455.5 363.695312 455.5 C 367.019531 455.5 369.714844 458.191406 369.714844 461.515625 Z M 369.714844 461.515625 " style=" stroke:none;fill-rule:nonzero;fill:rgb(100%,100%,100%);fill-opacity:1;" />
<path d="M 367.058594 461.515625 C 367.058594 463.371094 365.554688 464.875 363.695312 464.875 C 361.839844 464.875 360.335938 463.371094 360.335938 461.515625 C 360.335938 459.660156 361.839844 458.152344 363.695312 458.152344 C 365.554688 458.152344 367.058594 459.660156 367.058594 461.515625 Z M 367.058594 461.515625 " style=" stroke:none;fill-rule:nonzero;fill:rgb(100%,91.372549%,33.333333%);fill-opacity:1;" />
<path d="M 295.265625 483.476562 C 297.226562 481.511719 297.226562 478.324219 295.265625 476.363281 C 293.300781 474.398438 290.113281 474.398438 288.152344 476.363281 C 286.199219 478.316406 283.03125 478.316406 281.078125 476.363281 C 279.113281 474.398438 275.929688 474.398438 273.964844 476.363281 C 272 478.324219 272 481.511719 273.964844 483.476562 C 275.917969 485.429688 275.917969 488.59375 273.964844 490.546875 C 272 492.511719 272 495.695312 273.964844 497.660156 C 275.929688 499.625 279.113281 499.625 281.078125 497.660156 C 283.03125 495.707031 286.199219 495.707031 288.152344 497.660156 C 290.113281 499.625 293.300781 499.625 295.265625 497.660156 C 297.226562 495.695312 297.226562 492.511719 295.265625 490.546875 C 293.3125 488.59375 293.3125 485.429688 295.265625 483.476562 Z M 295.265625 483.476562 " style=" stroke:none;fill-rule:nonzero;fill:rgb(86.666667%,7.058824%,39.607843%);fill-opacity:1;" />
<path d="M 289.644531 476.980469 C 289.644531 474.203125 287.390625 471.953125 284.613281 471.953125 C 281.835938 471.953125 279.585938 474.203125 279.585938 476.980469 C 279.585938 479.742188 277.347656 481.980469 274.585938 481.980469 C 271.808594 481.980469 269.554688 484.234375 269.554688 487.011719 C 269.554688 489.789062 271.808594 492.039062 274.585938 492.039062 C 277.347656 492.039062 279.585938 494.277344 279.585938 497.039062 C 279.585938 499.820312 281.839844 502.070312 284.613281 502.070312 C 287.394531 502.070312 289.644531 499.816406 289.644531 497.039062 C 289.644531 494.277344 291.882812 492.039062 294.644531 492.039062 C 297.421875 492.039062 299.675781 489.789062 299.675781 487.011719 C 299.675781 484.234375 297.421875 481.980469 294.644531 481.980469 C 291.882812 481.984375 289.644531 479.742188 289.644531 476.980469 Z M 289.644531 476.980469 " style=" stroke:none;fill-rule:nonzero;fill:rgb(100%,20.392157%,27.058824%);fill-opacity:1;" />
<path d="M 290.632812 487.011719 C 290.632812 490.335938 287.9375 493.027344 284.613281 493.027344 C 281.292969 493.027344 278.597656 490.335938 278.597656 487.011719 C 278.597656 483.691406 281.292969 480.996094 284.613281 480.996094 C 287.9375 480.996094 290.632812 483.691406 290.632812 487.011719 Z M 290.632812 487.011719 " style=" stroke:none;fill-rule:nonzero;fill:rgb(100%,100%,100%);fill-opacity:1;" />
<path d="M 287.976562 487.011719 C 287.976562 488.867188 286.472656 490.371094 284.613281 490.371094 C 282.757812 490.371094 281.253906 488.867188 281.253906 487.011719 C 281.253906 485.15625 282.757812 483.652344 284.613281 483.652344 C 286.472656 483.652344 287.976562 485.15625 287.976562 487.011719 Z M 287.976562 487.011719 " style=" stroke:none;fill-rule:nonzero;fill:rgb(100%,91.372549%,33.333333%);fill-opacity:1;" />
<path d="M 365.582031 381.453125 C 367.546875 379.488281 367.546875 376.304688 365.582031 374.339844 C 363.617188 372.375 360.433594 372.375 358.46875 374.339844 C 356.515625 376.292969 353.347656 376.292969 351.394531 374.339844 C 349.429688 372.375 346.246094 372.375 344.28125 374.339844 C 342.316406 376.304688 342.316406 379.488281 344.28125 381.453125 C 346.234375 383.40625 346.234375 386.574219 344.28125 388.527344 C 342.316406 390.488281 342.316406 393.675781 344.28125 395.640625 C 346.246094 397.601562 349.429688 397.601562 351.394531 395.640625 C 353.347656 393.6875 356.515625 393.6875 358.46875 395.640625 C 360.433594 397.601562 363.617188 397.601562 365.582031 395.640625 C 367.546875 393.675781 367.546875 390.488281 365.582031 388.527344 C 363.628906 386.574219 363.628906 383.40625 365.582031 381.453125 Z M 365.582031 381.453125 " style=" stroke:none;fill-rule:nonzero;fill:rgb(86.666667%,7.058824%,39.607843%);fill-opacity:1;" />
<path d="M 359.960938 374.960938 C 359.960938 372.179688 357.710938 369.929688 354.933594 369.929688 C 352.152344 369.929688 349.902344 372.183594 349.902344 374.960938 C 349.902344 377.722656 347.664062 379.960938 344.902344 379.960938 C 342.125 379.960938 339.871094 382.210938 339.871094 384.988281 C 339.871094 387.765625 342.125 390.019531 344.902344 390.019531 C 347.664062 390.019531 349.902344 392.257812 349.902344 395.019531 C 349.902344 397.796875 352.15625 400.046875 354.933594 400.046875 C 357.710938 400.046875 359.960938 397.796875 359.960938 395.019531 C 359.960938 392.257812 362.199219 390.019531 364.960938 390.019531 C 367.738281 390.019531 369.992188 387.765625 369.992188 384.988281 C 369.992188 382.210938 367.738281 379.960938 364.960938 379.960938 C 362.199219 379.960938 359.960938 377.722656 359.960938 374.960938 Z M 359.960938 374.960938 " style=" stroke:none;fill-rule:nonzero;fill:rgb(100%,20.392157%,27.058824%);fill-opacity:1;" />
<path d="M 360.945312 384.988281 C 360.945312 388.3125 358.253906 391.007812 354.929688 391.007812 C 351.609375 391.007812 348.914062 388.3125 348.914062 384.988281 C 348.914062 381.667969 351.609375 378.972656 354.929688 378.972656 C 358.253906 378.972656 360.945312 381.667969 360.945312 384.988281 Z M 360.945312 384.988281 " style=" stroke:none;fill-rule:nonzero;fill:rgb(100%,100%,100%);fill-opacity:1;" />
<path d="M 358.292969 384.988281 C 358.292969 386.847656 356.789062 388.351562 354.929688 388.351562 C 353.074219 388.351562 351.570312 386.847656 351.570312 384.988281 C 351.570312 383.132812 353.074219 381.628906 354.929688 381.628906 C 356.789062 381.628906 358.292969 383.132812 358.292969 384.988281 Z M 358.292969 384.988281 " style=" stroke:none;fill-rule:nonzero;fill:rgb(100%,91.372549%,33.333333%);fill-opacity:1;" />
<path d="M 320.355469 437.890625 C 322.320312 435.925781 322.320312 432.738281 320.355469 430.777344 C 318.390625 428.8125 315.207031 428.8125 313.242188 430.777344 C 311.289062 432.730469 308.121094 432.730469 306.167969 430.777344 C 304.203125 428.8125 301.019531 428.8125 299.054688 430.777344 C 297.09375 432.738281 297.09375 435.925781 299.054688 437.890625 C 301.007812 439.84375 301.007812 443.007812 299.054688 444.960938 C 297.09375 446.925781 297.09375 450.109375 299.054688 452.074219 C 301.019531 454.039062 304.203125 454.039062 306.167969 452.074219 C 308.121094 450.121094 311.289062 450.121094 313.242188 452.074219 C 315.207031 454.039062 318.390625 454.039062 320.355469 452.074219 C 322.320312 450.109375 322.320312 446.925781 320.355469 444.960938 C 318.402344 443.007812 318.402344 439.84375 320.355469 437.890625 Z M 320.355469 437.890625 " style=" stroke:none;fill-rule:nonzero;fill:rgb(86.666667%,7.058824%,39.607843%);fill-opacity:1;" />
<path d="M 314.734375 431.394531 C 314.734375 428.617188 312.484375 426.367188 309.707031 426.367188 C 306.929688 426.367188 304.675781 428.617188 304.675781 431.394531 C 304.675781 434.15625 302.4375 436.394531 299.675781 436.394531 C 296.898438 436.394531 294.648438 438.648438 294.648438 441.425781 C 294.648438 444.203125 296.898438 446.453125 299.675781 446.453125 C 302.4375 446.453125 304.675781 448.691406 304.675781 451.453125 C 304.675781 454.234375 306.929688 456.484375 309.707031 456.484375 C 312.484375 456.484375 314.734375 454.230469 314.734375 451.453125 C 314.734375 448.691406 316.972656 446.453125 319.734375 446.453125 C 322.515625 446.453125 324.765625 444.203125 324.765625 441.425781 C 324.765625 438.648438 322.511719 436.394531 319.734375 436.394531 C 316.972656 436.394531 314.734375 434.15625 314.734375 431.394531 Z M 314.734375 431.394531 " style=" stroke:none;fill-rule:nonzero;fill:rgb(100%,20.392157%,27.058824%);fill-opacity:1;" />
<path d="M 315.722656 441.425781 C 315.722656 444.75 313.027344 447.441406 309.707031 447.441406 C 306.382812 447.441406 303.691406 444.75 303.691406 441.425781 C 303.691406 438.101562 306.382812 435.410156 309.707031 435.410156 C 313.027344 435.410156 315.722656 438.101562 315.722656 441.425781 Z M 315.722656 441.425781 " style=" stroke:none;fill-rule:nonzero;fill:rgb(100%,100%,100%);fill-opacity:1;" />
<path d="M 313.066406 441.425781 C 313.066406 443.28125 311.5625 444.785156 309.707031 444.785156 C 307.851562 444.785156 306.34375 443.28125 306.34375 441.425781 C 306.34375 439.570312 307.851562 438.066406 309.707031 438.066406 C 311.5625 438.066406 313.066406 439.570312 313.066406 441.425781 Z M 313.066406 441.425781 " style=" stroke:none;fill-rule:nonzero;fill:rgb(100%,91.372549%,33.333333%);fill-opacity:1;" />
<path d="M 295.265625 387.46875 C 297.226562 385.503906 297.226562 382.320312 295.265625 380.355469 C 293.300781 378.390625 290.113281 378.390625 288.152344 380.355469 C 286.199219 382.308594 283.03125 382.308594 281.078125 380.355469 C 279.113281 378.390625 275.929688 378.390625 273.964844 380.355469 C 272 382.320312 272 385.503906 273.964844 387.46875 C 275.917969 389.421875 275.917969 392.589844 273.964844 394.542969 C 272 396.507812 272 399.691406 273.964844 401.65625 C 275.929688 403.617188 279.113281 403.617188 281.078125 401.65625 C 283.03125 399.703125 286.199219 399.703125 288.152344 401.65625 C 290.113281 403.617188 293.300781 403.617188 295.265625 401.65625 C 297.226562 399.691406 297.226562 396.507812 295.265625 394.542969 C 293.3125 392.589844 293.3125 389.421875 295.265625 387.46875 Z M 295.265625 387.46875 " style=" stroke:none;fill-rule:nonzero;fill:rgb(86.666667%,7.058824%,39.607843%);fill-opacity:1;" />
<path d="M 289.644531 380.976562 C 289.644531 378.195312 287.390625 375.945312 284.613281 375.945312 C 281.835938 375.945312 279.585938 378.199219 279.585938 380.976562 C 279.585938 383.738281 277.347656 385.976562 274.585938 385.976562 C 271.808594 385.976562 269.554688 388.226562 269.554688 391.003906 C 269.554688 393.78125 271.808594 396.035156 274.585938 396.035156 C 277.347656 396.035156 279.585938 398.273438 279.585938 401.035156 C 279.585938 403.8125 281.839844 406.0625 284.613281 406.0625 C 287.394531 406.0625 289.644531 403.8125 289.644531 401.035156 C 289.644531 398.273438 291.882812 396.035156 294.644531 396.035156 C 297.421875 396.035156 299.675781 393.78125 299.675781 391.003906 C 299.675781 388.226562 297.421875 385.976562 294.644531 385.976562 C 291.882812 385.976562 289.644531 383.738281 289.644531 380.976562 Z M 289.644531 380.976562 " style=" stroke:none;fill-rule:nonzero;fill:rgb(100%,20.392157%,27.058824%);fill-opacity:1;" />
<path d="M 290.632812 391.007812 C 290.632812 394.328125 287.9375 397.023438 284.613281 397.023438 C 281.292969 397.023438 278.597656 394.328125 278.597656 391.007812 C 278.597656 387.683594 281.292969 384.988281 284.613281 384.988281 C 287.9375 384.988281 290.632812 387.683594 290.632812 391.007812 Z M 290.632812 391.007812 " style=" stroke:none;fill-rule:nonzero;fill:rgb(100%,100%,100%);fill-opacity:1;" />
<path d="M 287.976562 391.007812 C 287.976562 392.863281 286.472656 394.367188 284.613281 394.367188 C 282.757812 394.367188 281.253906 392.863281 281.253906 391.007812 C 281.253906 389.148438 282.757812 387.644531 284.613281 387.644531 C 286.472656 387.644531 287.976562 389.148438 287.976562 391.007812 Z M 287.976562 391.007812 " style=" stroke:none;fill-rule:nonzero;fill:rgb(100%,91.372549%,33.333333%);fill-opacity:1;" />
<path d="M 157.65625 457.980469 C 159.621094 456.015625 159.621094 452.828125 157.65625 450.867188 C 155.691406 448.902344 152.507812 448.902344 150.542969 450.867188 C 148.589844 452.820312 145.425781 452.820312 143.472656 450.867188 C 141.507812 448.902344 138.320312 448.902344 136.359375 450.867188 C 134.394531 452.828125 134.394531 456.015625 136.359375 457.980469 C 138.3125 459.933594 138.3125 463.097656 136.359375 465.050781 C 134.394531 467.015625 134.394531 470.199219 136.359375 472.164062 C 138.320312 474.128906 141.507812 474.128906 143.472656 472.164062 C 145.425781 470.210938 148.589844 470.210938 150.542969 472.164062 C 152.507812 474.128906 155.691406 474.128906 157.65625 472.164062 C 159.621094 470.199219 159.621094 467.015625 157.65625 465.050781 C 155.703125 463.097656 155.703125 459.933594 157.65625 457.980469 Z M 157.65625 457.980469 " style=" stroke:none;fill-rule:nonzero;fill:rgb(86.666667%,7.058824%,39.607843%);fill-opacity:1;" />
<path d="M 152.035156 451.484375 C 152.035156 448.707031 149.785156 446.457031 147.007812 446.457031 C 144.230469 446.457031 141.980469 448.707031 141.980469 451.484375 C 141.980469 454.246094 139.738281 456.484375 136.976562 456.484375 C 134.199219 456.484375 131.949219 458.738281 131.949219 461.515625 C 131.949219 464.292969 134.199219 466.542969 136.976562 466.542969 C 139.738281 466.542969 141.980469 468.78125 141.980469 471.546875 C 141.980469 474.324219 144.230469 476.574219 147.007812 476.574219 C 149.785156 476.574219 152.035156 474.320312 152.035156 471.546875 C 152.035156 468.78125 154.277344 466.542969 157.039062 466.542969 C 159.816406 466.542969 162.066406 464.292969 162.066406 461.515625 C 162.066406 458.738281 159.816406 456.484375 157.039062 456.484375 C 154.277344 456.484375 152.035156 454.246094 152.035156 451.484375 Z M 152.035156 451.484375 " style=" stroke:none;fill-rule:nonzero;fill:rgb(100%,20.392157%,27.058824%);fill-opacity:1;" />
<path d="M 153.023438 461.515625 C 153.023438 464.835938 150.332031 467.53125 147.007812 467.53125 C 143.683594 467.53125 140.992188 464.835938 140.992188 461.515625 C 140.992188 458.191406 143.683594 455.5 147.007812 455.5 C 150.332031 455.5 153.023438 458.191406 153.023438 461.515625 Z M 153.023438 461.515625 " style=" stroke:none;fill-rule:nonzero;fill:rgb(100%,100%,100%);fill-opacity:1;" />
<path d="M 150.367188 461.515625 C 150.367188 463.371094 148.863281 464.875 147.007812 464.875 C 145.152344 464.875 143.648438 463.371094 143.648438 461.515625 C 143.648438 459.660156 145.152344 458.152344 147.007812 458.152344 C 148.863281 458.152344 150.367188 459.660156 150.367188 461.515625 Z M 150.367188 461.515625 " style=" stroke:none;fill-rule:nonzero;fill:rgb(100%,91.372549%,33.333333%);fill-opacity:1;" />
<path d="M 215.441406 483.476562 C 213.476562 481.511719 213.476562 478.324219 215.441406 476.363281 C 217.40625 474.398438 220.589844 474.398438 222.554688 476.363281 C 224.507812 478.316406 227.675781 478.316406 229.628906 476.363281 C 231.59375 474.398438 234.777344 474.398438 236.742188 476.363281 C 238.703125 478.324219 238.703125 481.511719 236.742188 483.476562 C 234.789062 485.429688 234.789062 488.59375 236.742188 490.546875 C 238.703125 492.511719 238.703125 495.695312 236.742188 497.660156 C 234.777344 499.625 231.59375 499.625 229.628906 497.660156 C 227.675781 495.707031 224.507812 495.707031 222.554688 497.660156 C 220.589844 499.625 217.40625 499.625 215.441406 497.660156 C 213.476562 495.695312 213.476562 492.511719 215.441406 490.546875 C 217.394531 488.59375 217.394531 485.429688 215.441406 483.476562 Z M 215.441406 483.476562 " style=" stroke:none;fill-rule:nonzero;fill:rgb(86.666667%,7.058824%,39.607843%);fill-opacity:1;" />
<path d="M 221.0625 476.980469 C 221.0625 474.203125 223.3125 471.953125 226.089844 471.953125 C 228.867188 471.953125 231.117188 474.203125 231.117188 476.980469 C 231.117188 479.742188 233.359375 481.980469 236.121094 481.980469 C 238.898438 481.980469 241.148438 484.234375 241.148438 487.011719 C 241.148438 489.789062 238.898438 492.039062 236.121094 492.039062 C 233.359375 492.039062 231.117188 494.277344 231.117188 497.039062 C 231.117188 499.820312 228.867188 502.070312 226.089844 502.070312 C 223.3125 502.070312 221.0625 499.816406 221.0625 497.039062 C 221.0625 494.277344 218.820312 492.039062 216.058594 492.039062 C 213.28125 492.039062 211.03125 489.789062 211.03125 487.011719 C 211.03125 484.234375 213.28125 481.980469 216.058594 481.980469 C 218.820312 481.984375 221.0625 479.742188 221.0625 476.980469 Z M 221.0625 476.980469 " style=" stroke:none;fill-rule:nonzero;fill:rgb(100%,20.392157%,27.058824%);fill-opacity:1;" />
<path d="M 232.105469 487.011719 C 232.105469 490.335938 229.414062 493.027344 226.089844 493.027344 C 222.769531 493.027344 220.074219 490.335938 220.074219 487.011719 C 220.074219 483.691406 222.769531 480.996094 226.089844 480.996094 C 229.414062 480.996094 232.105469 483.691406 232.105469 487.011719 Z M 232.105469 487.011719 " style=" stroke:none;fill-rule:nonzero;fill:rgb(100%,100%,100%);fill-opacity:1;" />
<path d="M 229.453125 487.011719 C 229.453125 488.867188 227.945312 490.371094 226.089844 490.371094 C 224.234375 490.371094 222.730469 488.867188 222.730469 487.011719 C 222.730469 485.15625 224.234375 483.652344 226.089844 483.652344 C 227.945312 483.652344 229.453125 485.15625 229.453125 487.011719 Z M 229.453125 487.011719 " style=" stroke:none;fill-rule:nonzero;fill:rgb(100%,91.372549%,33.333333%);fill-opacity:1;" />
<path d="M 145.125 381.453125 C 143.160156 379.488281 143.160156 376.304688 145.125 374.339844 C 147.089844 372.375 150.273438 372.375 152.238281 374.339844 C 154.191406 376.292969 157.359375 376.292969 159.3125 374.339844 C 161.273438 372.375 164.460938 372.375 166.425781 374.339844 C 168.386719 376.304688 168.386719 379.488281 166.425781 381.453125 C 164.472656 383.40625 164.472656 386.574219 166.425781 388.527344 C 168.386719 390.488281 168.386719 393.675781 166.425781 395.640625 C 164.460938 397.601562 161.273438 397.601562 159.3125 395.640625 C 157.359375 393.6875 154.191406 393.6875 152.238281 395.640625 C 150.273438 397.601562 147.089844 397.601562 145.125 395.640625 C 143.160156 393.675781 143.160156 390.488281 145.125 388.527344 C 147.078125 386.574219 147.078125 383.40625 145.125 381.453125 Z M 145.125 381.453125 " style=" stroke:none;fill-rule:nonzero;fill:rgb(86.666667%,7.058824%,39.607843%);fill-opacity:1;" />
<path d="M 150.742188 374.960938 C 150.742188 372.179688 152.996094 369.929688 155.773438 369.929688 C 158.550781 369.929688 160.800781 372.183594 160.800781 374.960938 C 160.800781 377.722656 163.039062 379.960938 165.804688 379.960938 C 168.582031 379.960938 170.832031 382.210938 170.832031 384.988281 C 170.832031 387.765625 168.578125 390.019531 165.804688 390.019531 C 163.039062 390.019531 160.800781 392.257812 160.800781 395.019531 C 160.800781 397.796875 158.550781 400.046875 155.773438 400.046875 C 152.996094 400.046875 150.742188 397.796875 150.742188 395.019531 C 150.742188 392.257812 148.503906 390.019531 145.742188 390.019531 C 142.964844 390.019531 140.714844 387.765625 140.714844 384.988281 C 140.714844 382.210938 142.964844 379.960938 145.742188 379.960938 C 148.503906 379.960938 150.742188 377.722656 150.742188 374.960938 Z M 150.742188 374.960938 " style=" stroke:none;fill-rule:nonzero;fill:rgb(100%,20.392157%,27.058824%);fill-opacity:1;" />
<path d="M 161.789062 384.988281 C 161.789062 388.3125 159.097656 391.007812 155.773438 391.007812 C 152.453125 391.007812 149.757812 388.3125 149.757812 384.988281 C 149.757812 381.667969 152.453125 378.972656 155.773438 378.972656 C 159.097656 378.972656 161.789062 381.667969 161.789062 384.988281 Z M 161.789062 384.988281 " style=" stroke:none;fill-rule:nonzero;fill:rgb(100%,100%,100%);fill-opacity:1;" />
<path d="M 159.136719 384.988281 C 159.136719 386.847656 157.628906 388.351562 155.773438 388.351562 C 153.917969 388.351562 152.414062 386.847656 152.414062 384.988281 C 152.414062 383.132812 153.917969 381.628906 155.773438 381.628906 C 157.628906 381.628906 159.136719 383.132812 159.136719 384.988281 Z M 159.136719 384.988281 " style=" stroke:none;fill-rule:nonzero;fill:rgb(100%,91.372549%,33.333333%);fill-opacity:1;" />
<path d="M 190.351562 437.890625 C 188.386719 435.925781 188.386719 432.738281 190.351562 430.777344 C 192.316406 428.8125 195.5 428.8125 197.464844 430.777344 C 199.417969 432.730469 202.585938 432.730469 204.535156 430.777344 C 206.5 428.8125 209.6875 428.8125 211.648438 430.777344 C 213.613281 432.738281 213.613281 435.925781 211.648438 437.890625 C 209.695312 439.84375 209.695312 443.007812 211.648438 444.960938 C 213.613281 446.925781 213.613281 450.109375 211.648438 452.074219 C 209.6875 454.039062 206.5 454.039062 204.535156 452.074219 C 202.585938 450.121094 199.417969 450.121094 197.464844 452.074219 C 195.5 454.039062 192.316406 454.039062 190.351562 452.074219 C 188.386719 450.109375 188.386719 446.925781 190.351562 444.960938 C 192.304688 443.007812 192.304688 439.84375 190.351562 437.890625 Z M 190.351562 437.890625 " style=" stroke:none;fill-rule:nonzero;fill:rgb(86.666667%,7.058824%,39.607843%);fill-opacity:1;" />
<path d="M 195.96875 431.394531 C 195.96875 428.617188 198.222656 426.367188 201 426.367188 C 203.777344 426.367188 206.027344 428.617188 206.027344 431.394531 C 206.027344 434.15625 208.265625 436.394531 211.027344 436.394531 C 213.808594 436.394531 216.058594 438.648438 216.058594 441.425781 C 216.058594 444.203125 213.804688 446.453125 211.027344 446.453125 C 208.265625 446.453125 206.027344 448.691406 206.027344 451.453125 C 206.027344 454.234375 203.777344 456.484375 201 456.484375 C 198.222656 456.484375 195.96875 454.230469 195.96875 451.453125 C 195.96875 448.691406 193.730469 446.453125 190.96875 446.453125 C 188.191406 446.453125 185.941406 444.203125 185.941406 441.425781 C 185.941406 438.648438 188.191406 436.394531 190.96875 436.394531 C 193.730469 436.394531 195.96875 434.15625 195.96875 431.394531 Z M 195.96875 431.394531 " style=" stroke:none;fill-rule:nonzero;fill:rgb(100%,20.392157%,27.058824%);fill-opacity:1;" />
<path d="M 207.015625 441.425781 C 207.015625 444.75 204.324219 447.441406 201 447.441406 C 197.675781 447.441406 194.984375 444.75 194.984375 441.425781 C 194.984375 438.101562 197.675781 435.410156 201 435.410156 C 204.324219 435.410156 207.015625 438.101562 207.015625 441.425781 Z M 207.015625 441.425781 " style=" stroke:none;fill-rule:nonzero;fill:rgb(100%,100%,100%);fill-opacity:1;" />
<path d="M 204.359375 441.425781 C 204.359375 443.28125 202.855469 444.785156 201 444.785156 C 199.144531 444.785156 197.640625 443.28125 197.640625 441.425781 C 197.640625 439.570312 199.144531 438.066406 201 438.066406 C 202.855469 438.066406 204.359375 439.570312 204.359375 441.425781 Z M 204.359375 441.425781 " style=" stroke:none;fill-rule:nonzero;fill:rgb(100%,91.372549%,33.333333%);fill-opacity:1;" />
<path d="M 215.441406 387.46875 C 213.476562 385.503906 213.476562 382.320312 215.441406 380.355469 C 217.40625 378.390625 220.589844 378.390625 222.554688 380.355469 C 224.507812 382.308594 227.675781 382.308594 229.628906 380.355469 C 231.59375 378.390625 234.777344 378.390625 236.742188 380.355469 C 238.703125 382.320312 238.703125 385.503906 236.742188 387.46875 C 234.789062 389.421875 234.789062 392.589844 236.742188 394.542969 C 238.703125 396.507812 238.703125 399.691406 236.742188 401.65625 C 234.777344 403.617188 231.59375 403.617188 229.628906 401.65625 C 227.675781 399.703125 224.507812 399.703125 222.554688 401.65625 C 220.589844 403.617188 217.40625 403.617188 215.441406 401.65625 C 213.476562 399.691406 213.476562 396.507812 215.441406 394.542969 C 217.394531 392.589844 217.394531 389.421875 215.441406 387.46875 Z M 215.441406 387.46875 " style=" stroke:none;fill-rule:nonzero;fill:rgb(86.666667%,7.058824%,39.607843%);fill-opacity:1;" />
<path d="M 221.0625 380.976562 C 221.0625 378.195312 223.3125 375.945312 226.089844 375.945312 C 228.867188 375.945312 231.117188 378.199219 231.117188 380.976562 C 231.117188 383.738281 233.359375 385.976562 236.121094 385.976562 C 238.898438 385.976562 241.148438 388.226562 241.148438 391.003906 C 241.148438 393.78125 238.898438 396.035156 236.121094 396.035156 C 233.359375 396.035156 231.117188 398.273438 231.117188 401.035156 C 231.117188 403.8125 228.867188 406.0625 226.089844 406.0625 C 223.3125 406.0625 221.0625 403.8125 221.0625 401.035156 C 221.0625 398.273438 218.820312 396.035156 216.058594 396.035156 C 213.28125 396.035156 211.03125 393.78125 211.03125 391.003906 C 211.03125 388.226562 213.28125 385.976562 216.058594 385.976562 C 218.820312 385.976562 221.0625 383.738281 221.0625 380.976562 Z M 221.0625 380.976562 " style=" stroke:none;fill-rule:nonzero;fill:rgb(100%,20.392157%,27.058824%);fill-opacity:1;" />
<path d="M 232.105469 391.007812 C 232.105469 394.328125 229.414062 397.023438 226.089844 397.023438 C 222.769531 397.023438 220.074219 394.328125 220.074219 391.007812 C 220.074219 387.683594 222.769531 384.988281 226.089844 384.988281 C 229.414062 384.988281 232.105469 387.683594 232.105469 391.007812 Z M 232.105469 391.007812 " style=" stroke:none;fill-rule:nonzero;fill:rgb(100%,100%,100%);fill-opacity:1;" />
<path d="M 229.453125 391.007812 C 229.453125 392.863281 227.945312 394.367188 226.089844 394.367188 C 224.234375 394.367188 222.730469 392.863281 222.730469 391.007812 C 222.730469 389.148438 224.234375 387.644531 226.089844 387.644531 C 227.945312 387.644531 229.453125 389.148438 229.453125 391.007812 Z M 229.453125 391.007812 " style=" stroke:none;fill-rule:nonzero;fill:rgb(100%,91.372549%,33.333333%);fill-opacity:1;" />
<path d="M 261.480469 308.800781 L 261.480469 511.941406 C 259.648438 511.980469 257.820312 512 255.980469 512 C 254.140625 512 252.308594 511.980469 250.480469 511.941406 L 250.480469 308.800781 Z M 261.480469 308.800781 " style=" stroke:none;fill-rule:nonzero;fill:rgb(92.156863%,46.666667%,13.333333%);fill-opacity:1;" />
<path d="M 255.980469 359.980469 L 255.980469 394.28125 L 255.988281 394.300781 L 256 394.328125 L 256 360 Z M 255.980469 359.980469 " style=" stroke:none;fill-rule:nonzero;fill:rgb(100%,100%,100%);fill-opacity:1;" />
<path d="M 289.410156 288.289062 L 255.980469 288.289062 L 255.980469 394.328125 L 255.988281 394.300781 L 256 394.269531 L 265.921875 363.789062 C 266.800781 361.058594 268.171875 358.539062 269.921875 356.328125 C 271.679688 354.121094 273.820312 352.21875 276.28125 350.730469 C 282.140625 348.050781 289.070312 349.78125 292.988281 354.890625 L 301.328125 365.738281 L 307.828125 338.789062 C 311.28125 324.519531 307.640625 309.46875 298.070312 298.339844 Z M 289.410156 288.289062 " style=" stroke:none;fill-rule:nonzero;fill:rgb(92.156863%,46.666667%,13.333333%);fill-opacity:1;" />
<path d="M 222.570312 288.289062 L 256 288.289062 L 256 394.328125 L 255.988281 394.300781 L 255.980469 394.269531 L 246.058594 363.789062 C 245.179688 361.058594 243.808594 358.539062 242.058594 356.328125 C 240.300781 354.121094 238.160156 352.21875 235.699219 350.730469 C 229.839844 348.050781 222.910156 349.78125 218.988281 354.890625 L 210.648438 365.738281 L 204.148438 338.789062 C 200.699219 324.519531 204.339844 309.46875 213.910156 298.339844 Z M 222.570312 288.289062 " style=" stroke:none;fill-rule:nonzero;fill:rgb(100%,62.352941%,0%);fill-opacity:1;" />
<path d="M 358.652344 181.953125 C 371.28125 181.953125 381.515625 192.191406 381.515625 204.816406 C 381.515625 227.816406 362.871094 246.460938 339.871094 246.460938 L 339.871094 181.902344 Z M 358.652344 181.953125 " style=" stroke:none;fill-rule:nonzero;fill:rgb(89.019608%,51.372549%,35.294118%);fill-opacity:1;" />
<path d="M 153.316406 181.953125 C 140.691406 181.953125 130.453125 192.191406 130.453125 204.816406 C 130.453125 227.816406 149.097656 246.460938 172.097656 246.460938 L 172.097656 181.902344 Z M 153.316406 181.953125 " style=" stroke:none;fill-rule:nonzero;fill:rgb(89.019608%,51.372549%,35.294118%);fill-opacity:1;" />
<path d="M 221.347656 264.351562 L 221.347656 313.636719 C 221.347656 332.761719 236.855469 348.277344 255.988281 348.277344 C 275.113281 348.277344 290.625 332.761719 290.625 313.636719 L 290.625 264.351562 Z M 221.347656 264.351562 " style=" stroke:none;fill-rule:nonzero;fill:rgb(89.019608%,51.372549%,35.294118%);fill-opacity:1;" />
<path d="M 221.347656 264.351562 L 221.347656 313.636719 C 221.347656 332.761719 236.855469 348.277344 255.988281 348.277344 L 255.988281 264.351562 Z M 221.347656 264.351562 " style=" stroke:none;fill-rule:nonzero;fill:rgb(100%,65.882353%,47.843137%);fill-opacity:1;" />
<path d="M 166.613281 186.246094 L 166.613281 219.941406 C 166.613281 269.277344 206.613281 309.304688 255.96875 309.3125 C 255.976562 309.3125 255.976562 309.3125 255.988281 309.3125 C 305.324219 309.3125 345.351562 269.289062 345.351562 219.941406 L 345.351562 186.246094 C 345.351562 181.171875 344.933594 176.191406 344.097656 171.351562 C 338.269531 136.539062 312.292969 108.558594 278.582031 99.753906 C 271.367188 97.882812 263.785156 96.886719 255.988281 96.886719 C 255.980469 96.886719 255.980469 96.886719 255.96875 96.886719 C 248.15625 96.886719 240.578125 97.882812 233.367188 99.773438 C 199.65625 108.558594 173.707031 136.539062 167.871094 171.351562 C 167.039062 176.191406 166.613281 181.171875 166.613281 186.246094 Z M 166.613281 186.246094 " style=" stroke:none;fill-rule:nonzero;fill:rgb(100%,65.882353%,47.843137%);fill-opacity:1;" />
<path d="M 166.613281 186.246094 L 166.613281 219.941406 C 166.613281 269.277344 206.613281 309.304688 255.96875 309.3125 L 255.96875 96.882812 C 248.15625 96.882812 240.578125 97.882812 233.367188 99.769531 C 199.65625 108.554688 173.703125 136.535156 167.867188 171.351562 C 167.039062 176.191406 166.613281 181.171875 166.613281 186.246094 Z M 166.613281 186.246094 " style=" stroke:none;fill-rule:nonzero;fill:rgb(100%,75.294118%,64.313725%);fill-opacity:1;" />
<path d="M 295.023438 208.738281 C 295.023438 214.8125 290.097656 219.738281 284.019531 219.738281 C 277.941406 219.738281 273.015625 214.8125 273.015625 208.738281 C 273.015625 202.660156 277.941406 197.734375 284.019531 197.734375 C 290.097656 197.734375 295.023438 202.660156 295.023438 208.738281 Z M 295.023438 208.738281 " style=" stroke:none;fill-rule:nonzero;fill:rgb(19.607843%,23.137255%,35.294118%);fill-opacity:1;" />
<path d="M 238.953125 208.738281 C 238.953125 214.8125 234.027344 219.738281 227.949219 219.738281 C 221.875 219.738281 216.949219 214.8125 216.949219 208.738281 C 216.949219 202.660156 221.875 197.734375 227.949219 197.734375 C 234.027344 197.734375 238.953125 202.660156 238.953125 208.738281 Z M 238.953125 208.738281 " style=" stroke:none;fill-rule:nonzero;fill:rgb(19.607843%,23.137255%,35.294118%);fill-opacity:1;" />
<path d="M 229.667969 253.53125 C 221.890625 253.53125 217.75 262.863281 223.097656 268.511719 C 226.449219 272.046875 230.367188 275.042969 234.699219 277.355469 C 241.042969 280.75 248.285156 282.667969 255.984375 282.667969 C 263.683594 282.667969 270.929688 280.75 277.269531 277.355469 C 281.605469 275.042969 285.519531 272.046875 288.871094 268.511719 C 294.21875 262.863281 290.078125 253.53125 282.304688 253.53125 Z M 229.667969 253.53125 " style=" stroke:none;fill-rule:nonzero;fill:rgb(19.607843%,23.137255%,35.294118%);fill-opacity:1;" />
<path d="M 147.445312 177.992188 C 147.445312 183.210938 151.367188 187.613281 156.550781 188.222656 C 161.042969 188.753906 165.617188 189.019531 170.242188 189.019531 C 204.148438 189.019531 234.6875 174.539062 255.96875 151.386719 C 277.265625 174.539062 307.796875 189.019531 341.703125 189.019531 C 346.277344 189.019531 350.789062 188.761719 355.230469 188.242188 C 357.878906 187.941406 360.191406 186.652344 361.859375 184.789062 C 363.519531 182.917969 364.527344 180.472656 364.527344 177.796875 C 364.527344 137.367188 342.699219 99.621094 306.871094 80.894531 C 299.621094 77.113281 291.902344 74.105469 283.824219 71.992188 C 274.941406 69.691406 265.59375 68.460938 255.984375 68.460938 C 255.976562 68.460938 255.976562 68.460938 255.96875 68.460938 C 246.34375 68.460938 237.003906 69.691406 228.128906 72.019531 C 223.511719 73.222656 219.015625 74.722656 214.65625 76.480469 C 194.144531 84.789062 177.34375 99.101562 165.667969 116.875 C 153.996094 134.628906 147.445312 155.863281 147.445312 177.992188 Z M 147.445312 177.992188 " style=" stroke:none;fill-rule:nonzero;fill:rgb(19.607843%,23.137255%,35.294118%);fill-opacity:1;" />
<path d="M 147.445312 177.992188 C 147.445312 183.210938 151.367188 187.613281 156.550781 188.222656 C 161.042969 188.753906 165.617188 189.019531 170.242188 189.019531 C 204.148438 189.019531 234.6875 174.539062 255.96875 151.386719 L 255.96875 68.460938 C 246.34375 68.460938 237.003906 69.691406 228.128906 72.019531 C 223.511719 73.222656 219.015625 74.722656 214.65625 76.480469 C 194.144531 84.789062 177.34375 99.101562 165.667969 116.875 C 153.996094 134.628906 147.445312 155.863281 147.445312 177.992188 Z M 147.445312 177.992188 " style=" stroke:none;fill-rule:nonzero;fill:rgb(32.54902%,36.862745%,53.72549%);fill-opacity:1;" />
<path d="M 255.984375 238.867188 C 259.640625 238.867188 262.605469 235.902344 262.605469 232.246094 L 262.605469 198.984375 C 262.605469 195.328125 259.640625 192.363281 255.984375 192.363281 C 252.328125 192.363281 249.363281 195.328125 249.363281 198.984375 L 249.363281 232.246094 C 249.363281 235.902344 252.328125 238.867188 255.984375 238.867188 Z M 255.984375 238.867188 " style=" stroke:none;fill-rule:nonzero;fill:rgb(89.019608%,51.372549%,35.294118%);fill-opacity:1;" />
<path d="M 234.699219 277.351562 C 241.042969 280.75 248.285156 282.667969 255.984375 282.667969 C 263.683594 282.667969 270.929688 280.75 277.269531 277.351562 C 271.976562 271.617188 264.398438 268.023438 255.984375 268.023438 C 247.570312 268.023438 239.996094 271.617188 234.699219 277.351562 Z M 234.699219 277.351562 " style=" stroke:none;fill-rule:nonzero;fill:rgb(89.019608%,14.901961%,26.666667%);fill-opacity:1;" />
<path d="M 147.648438 153.820312 L 363.761719 153.820312 L 356.261719 107.789062 L 348.761719 61.769531 L 162.648438 61.769531 L 155.148438 107.789062 Z M 147.648438 153.820312 " style=" stroke:none;fill-rule:nonzero;fill:rgb(92.156863%,46.666667%,13.333333%);fill-opacity:1;" />
<path d="M 147.648438 153.820312 L 256 153.820312 L 256 61.769531 L 162.648438 61.769531 L 155.148438 107.789062 Z M 147.648438 153.820312 " style=" stroke:none;fill-rule:nonzero;fill:rgb(100%,62.352941%,0%);fill-opacity:1;" />
<path d="M 147.648438 153.820312 L 363.761719 153.820312 L 356.261719 107.789062 L 155.148438 107.789062 Z M 147.648438 153.820312 " style=" stroke:none;fill-rule:nonzero;fill:rgb(86.666667%,7.058824%,39.607843%);fill-opacity:1;" />
<path d="M 147.648438 153.820312 L 256 153.820312 L 256 107.789062 L 155.148438 107.789062 Z M 147.648438 153.820312 " style=" stroke:none;fill-rule:nonzero;fill:rgb(100%,20.392157%,27.058824%);fill-opacity:1;" />
<path d="M 114.601562 143.730469 L 397.398438 143.730469 L 397.398438 163.910156 L 114.601562 163.910156 Z M 114.601562 143.730469 " style=" stroke:none;fill-rule:nonzero;fill:rgb(92.156863%,46.666667%,13.333333%);fill-opacity:1;" />
<path d="M 114.601562 143.730469 L 256 143.730469 L 256 163.910156 L 114.601562 163.910156 Z M 114.601562 143.730469 " style=" stroke:none;fill-rule:nonzero;fill:rgb(100%,62.352941%,0%);fill-opacity:1;" />
</g>
</svg>