<svg enable-background="new 0 0 140 140" height="512" viewBox="0 0 140 140" width="512" xmlns="http://www.w3.org/2000/svg"><circle cx="70" cy="70" fill="#e05b49" r="64"/><path d="m78.4300003 24.1183147c-.9500122-.9099121-3.3499756-2.6199951-8.0899658-2.6199951-1.3900146 0-2.9700317.1500244-4.7700195.5-10.2399903 1.9899903-11.9700318 14.3199444-11.1900025 17.2700176v.0198975c.0100098.3300781.0100098.6601562.039978.9901123.0800171 1.0098877.2700195 2.0098877.5700073 2.9799805.0300293.0899658.0700073.1800537.1000366.2799072-.7700195.9500732-.9800415 3.1000977-.4200439 5.460083.4100342 1.7800293 1.1600342 3.2600098 1.9700317 4.1099854l1.6699829 1.6700439c.7600098 2.3499756 1.8400269 4.4300537 3.1699829 6.1199951v6.7700233l-1.6399536 2.8798828-2.6000366 2.4300537-11 6.0300293c-1.7099609.9300537-3.25 2.1500244-4.5599976 3.5899658-2.9299927 3.2199707-4.5499878 7.4200439-4.5499878 11.7800293v14.7099609l24.3272095 24.3271484c2.7964478.373291 5.6442261.5844727 8.5427856.5844727 32.2625122 0 58.9362717-23.8759766 63.3472824-54.920166l-54.7572554-54.8013934z" opacity=".1"/><path d="m61.482353 53.852448h17.034123v23.174328h-17.034123z" fill="#f7be56"/><path d="m83.7298431 109.0851059v-35.5723343l-2.7362823-1.4985428-10.9941406 2.1749802-10.9941368-2.1749802-.470562.2578507v36.8130264z" fill="#d5d6db"/><path d="m102.8685379 109.0851059v-14.7100754c0-4.354744-1.6198425-8.5519562-4.5494537-11.7759018-1.3095474-1.4410934-2.850502-2.6557999-4.5599365-3.5921326l-10.9708862-6.0112915-1.7935562-.983757-1.0466843.2051849c-.6242218 4.9985809-2.7928238 20.4129028-7.5529251 36.8679733h30.473442z" fill="#2f4859"/><path d="m67.6197128 109.0851059c-4.7605667-16.4496002-6.9330368-31.8598175-7.5572624-36.8627319l-1.0571671-.2104263-1.7671165.9677963-11.0028038 6.0272522c-1.7092056.9363327-3.2501602 2.1510391-4.5544624 3.5921326-2.929615 3.2239456-4.5494499 7.4211578-4.5494499 11.7759018v14.7100754h30.4882621z" fill="#2f4859"/><path d="m65.5138092 109.0851059h8.9586868l-2.1394119-27.0035019 2.2383576-3.877121-2.283043-3.9544067-2.2889785-.0608673-2.2773438.0608673-2.2830429 3.9544067 2.2378998 3.8759842z" fill="#e56353"/><path d="m78.5164795 67.66436-8.517067 6.5249253 7.0792923 9.1349106 3.9149552-11.3098832z" fill="#ebf0f3"/><path d="m61.4823532 67.66436 8.5170593 6.5249253-7.0792846 9.1349106-3.9149552-11.3098832z" fill="#ebf0f3"/><path d="m58.1373405 93.2072906c.9668884 4.3837051 3.889431 10.6590042 6.5924263 15.8778152h2.889946c-4.7607918-16.4496002-6.9330368-31.8598175-7.5572624-36.8627319-.1367912-1.0938721-.1999435-1.6934738-.1999435-1.6934738l-2.6243401 2.4508438-.0159569.0157318-.5888863 13.8006363 2.3824463 2.3879242z" fill="#3a556a"/><path d="m75.2809296 109.0851059c2.7027664-5.218811 5.6250839-11.4941101 6.5919724-15.8778152l-.8781967-4.0232544 2.3824463-2.3879242-.5888901-13.8006363-2.6402969-2.4665756s-.0631485.5943604-.1999435 1.6882324c-.6242218 4.9985809-2.793045 20.4129028-7.5529251 36.8679733z" fill="#3a556a"/><path d="m55.7963142 43.0302048c-1.3227272.3089867-1.8289871 2.9825363-1.1307144 5.9717636.6982422 2.9890709 2.336586 5.161808 3.6593094 4.8528214 1.3227806-.3089981 1.82901-2.9827003 1.1307678-5.9717712-.6982765-2.9892274-2.336586-5.1618081-3.6593628-4.8528138z" fill="#f7be56"/><path d="m83.8643646 43.0302048c1.3227234.3089867 1.8289871 2.9825363 1.1307144 5.9717636-.6982422 2.9890709-2.336586 5.161808-3.6593094 4.8528214-1.3227844-.3089981-1.82901-2.9827003-1.1307678-5.9717712.6982727-2.9892274 2.336586-5.1618081 3.6593628-4.8528138z" fill="#f7be56"/><ellipse cx="69.83" cy="46.862" fill="#fcd462" rx="12.77" ry="18.578"/><path d="m85.2935257 32.7063255c-.0768356-.3615913-.3178024-.741148-.6831741-.7974205-.3653793-.0562725-1.56427-2.0847893-2.1973953-3.0018711-.3613052-.5235138-.7676392-1.0140324-1.1734161-1.5039864-.5686493-.6863422-1.1373672-1.3729115-1.7060242-2.0592537-.1848602-.2231693-.3832245-.4443035-.5924988-.6504097l.0028839-.0089264s-3.1334534-4.6833763-13.3739548-2.6874027c-10.240448 1.996088-11.9680557 14.3238106-11.1910324 17.2722359.0014687.0056496.0036697.0085869.0051956.0142365.0031662.3317566.0097198.663517.0359344.994709.0800018 1.0108719.273056 2.0128136.5744743 2.9809685.7092819 2.2784653 2.0280685 4.4423561 2.0019073 6.8286209-.004406.4040756-.0467796.8194542.0780258 1.2038689.1248055.3845253.4799538.733799.8818817.6905212.3559418-.0383072.6212006-.3730011.7006378-.7220497.07938-.3490448.0147438-.7126694-.0420341-1.066124-.9019432-5.6157112.3133392-11.5460091 3.3514252-16.3544731.6254959-.9898529 1.4516144-2.0133762 2.6112976-2.1759796.8685532-.1219234 1.7134323.2730007 2.5589294.5062256 1.3957901.3850937 2.9100571.3282547 4.27314-.1603432 1.2192917-.4370708 2.3824234-1.2203636 3.67556-1.1460114 1.0212631.0587578 1.9513931.6678104 2.6019745 1.4572067.6506348.7893944 1.0577087 1.7483978 1.4109879 2.7084198 1.87603 5.0984116 2.4650269 10.6647453 1.6975555 16.042942-.0863876.6052094-.0359879 1.4418373.5662231 1.5469246.410408.0714149.7818832-.3271255.8404694-.739563.0585938-.4124413.0343781-1.3862305.3975449-1.8369713.3631744-.450634.5033493-1.0359573.633522-1.5999222.2551423-1.1058997 3.8282472-7.4170111 2.0599595-15.7361716z" fill="#3a556a"/></svg>